<?xml version="1.0" encoding="utf-8"?><svg viewBox="0 0 46 46" xmlns="http://www.w3.org/2000/svg" xmlns:xlink="http://www.w3.org/1999/xlink"><style>:root>svg{display:none}:root>svg:target{display:block}</style><svg fill="none" viewBox="0 0 14 15" id="btn-arrow-right" xmlns="http://www.w3.org/2000/svg"><path d="M0 7.5a7 7 0 1 0 7-7 7.013 7.013 0 0 0-7 7Zm6.556-2.82 2.692 2.423a.538.538 0 0 1 0 .794L6.556 10.32a.538.538 0 0 1-.727-.794L8.077 7.5 5.829 5.474a.539.539 0 1 1 .727-.794Z" fill="#5956E8"/></svg><svg fill="none" viewBox="0 0 14 15" id="btn-arrow-right-transparent" xmlns="http://www.w3.org/2000/svg"><path d="M0 7.5a7 7 0 1 0 7-7 7.013 7.013 0 0 0-7 7Zm6.556-2.82 2.692 2.423a.538.538 0 0 1 0 .794L6.556 10.32a.538.538 0 0 1-.727-.794L8.077 7.5 5.829 5.474a.539.539 0 1 1 .727-.794Z" fill="#525255"/></svg><svg fill="none" viewBox="0 0 46 46" id="case-content-btn" xmlns="http://www.w3.org/2000/svg"><circle cx="23" cy="23" fill="#292930" r="23"/><path d="m21 16 7 7-7 7" stroke="#fff" stroke-width="1.5" stroke-linecap="round" stroke-linejoin="round"/></svg></svg>